<svg xmlns="http://www.w3.org/2000/svg" viewBox="0 0 64 64" fill="none">
  <defs>
    <linearGradient id="g" x1="12" y1="8" x2="52" y2="56" gradientUnits="userSpaceOnUse">
      <stop stop-color="#FFD36A"/>
      <stop offset="0.45" stop-color="#F5B942"/>
      <stop offset="1" stop-color="#D4921A"/>
    </linearGradient>
    <filter id="glow" x="-20%" y="-20%" width="140%" height="140%">
      <feGaussianBlur stdDeviation="2" result="b"/>
      <feMerge>
        <feMergeNode in="b"/>
        <feMergeNode in="SourceGraphic"/>
      </feMerge>
    </filter>
  </defs>
  <rect width="64" height="64" rx="16" fill="#0A0A0C"/>
  <rect x="8" y="8" width="48" height="48" rx="12" fill="url(#g)" filter="url(#glow)"/>
  <path d="M28.2 42V22h8.1c2.4 0 4.2.5 5.4 1.5 1.2 1 1.8 2.4 1.8 4.2 0 1.3-.3 2.4-1 3.2-.7.8-1.6 1.4-2.8 1.7 1.5.3 2.6 1 3.4 2 .8 1.1 1.2 2.4 1.2 4 0 2-.7 3.5-2 4.6-1.4 1.1-3.3 1.7-5.8 1.7h-8.3zm4.3-12.4h3.5c1.2 0 2.1-.3 2.7-.8.6-.5.9-1.3.9-2.2 0-1-.3-1.7-.9-2.1-.6-.5-1.5-.7-2.7-.7h-3.5v5.8zm0 3.4v5.9h4c1.3 0 2.3-.3 3-.9.7-.6 1-1.4 1-2.5 0-1-.3-1.8-1-2.3-.6-.6-1.6-.8-3-.8h-4z" fill="#0A0A0C"/>
</svg>
